# xmcd
#
# Track frame offsets: 
#        183
#        19915
#        36425
#        49600
#        66333
#        83583
#        102503
#        119063
#        129183
#        142408
#        157720
#        172243
#        188653
#        201398
#        219370
#        238035
#        254883
#        265513
#        287758
#        302133
#        316978
#        332740
#
# Disc length: 4658 seconds
#
# Revision: 3
# Processed by: cddbd v1.5.2PL0 Copyright (c) Steve Scherf et al.
# Submitted via: ExactAudioCopy v0.99pb5
#
DISCID=51123016
DTITLE=Steve Young - Lonesome, On'ry and Mean
DYEAR=1900
DGENRE=country
TTITLE0=Magnolias
TTITLE1=Woman Don't Weep
TTITLE2=This Wheel's on Fire
TTITLE3=Rock, Salt and Nails
TTITLE4=Holler in the Swamp
TTITLE5=Kenny's Song
TTITLE6=That's How Strong My Love Is
TTITLE7=I'm a One Woman Man
TTITLE8=My Sweet Love Ain't Around
TTITLE9=Seven Bridges Road
TTITLE10=The White Trash Song
TTITLE11=Lonesome On'ry and Mean
TTITLE12=Ragtime Blue Guitar
TTITLE13=Long Way to Hollywood
TTITLE14=Montgomery in the Rain
TTITLE15=Ramblin' Man
TTITLE16=Honky Tonk Man
TTITLE17=Alabama Highway
TTITLE18=Renegade Picker
TTITLE19=Old Memories (Mean Nothing to Me)
TTITLE20=All Her Lovers Want to Be the Hero
TTITLE21=Dreamer
EXTD=Reissue
EXTT0=
EXTT1=
EXTT2=
EXTT3=
EXTT4=
EXTT5=
EXTT6=
EXTT7=
EXTT8=
EXTT9=
EXTT10=
EXTT11=
EXTT12=
EXTT13=
EXTT14=
EXTT15=
EXTT16=
EXTT17=
EXTT18=
EXTT19=
EXTT20=
EXTT21=
PLAYORDER=
